<mxfile host="app.diagrams.net" agent="Mozilla/5.0 (Windows NT 10.0; Win64; x64) AppleWebKit/537.36 (KHTML, like Gecko) Chrome/132.0.0.0 Safari/537.36" version="26.0.10">
  <diagram name="Página-1" id="tXyUrZ6mNizlsG1RU7EH">
    <mxGraphModel dx="654" dy="451" grid="1" gridSize="10" guides="1" tooltips="1" connect="1" arrows="1" fold="1" page="1" pageScale="1" pageWidth="827" pageHeight="1169" math="0" shadow="0">
      <root>
        <mxCell id="0" />
        <mxCell id="1" parent="0" />
        <mxCell id="rh-3uXtS7XajqYFqgFPl-76" value="" style="rounded=0;whiteSpace=wrap;html=1;dashed=1;fillColor=none;strokeWidth=1;movable=0;resizable=0;rotatable=0;deletable=0;editable=0;locked=1;connectable=0;" vertex="1" parent="1">
          <mxGeometry x="400" y="70" width="600" height="270" as="geometry" />
        </mxCell>
        <mxCell id="rh-3uXtS7XajqYFqgFPl-1" value="" style="rounded=1;whiteSpace=wrap;html=1;fillColor=#B3B3B3;strokeColor=none;movable=0;resizable=0;rotatable=0;deletable=0;editable=0;locked=1;connectable=0;fontColor=#ffffff;" vertex="1" parent="1">
          <mxGeometry x="140" y="70" width="190" height="310" as="geometry" />
        </mxCell>
        <mxCell id="rh-3uXtS7XajqYFqgFPl-2" value="&lt;i&gt;Legenda&lt;/i&gt;" style="text;html=1;align=center;verticalAlign=middle;whiteSpace=wrap;rounded=0;" vertex="1" parent="1">
          <mxGeometry x="150" y="80" width="50" height="30" as="geometry" />
        </mxCell>
        <mxCell id="rh-3uXtS7XajqYFqgFPl-4" value="" style="rounded=1;whiteSpace=wrap;html=1;" vertex="1" parent="1">
          <mxGeometry x="160" y="120" width="150" height="30" as="geometry" />
        </mxCell>
        <mxCell id="rh-3uXtS7XajqYFqgFPl-5" value="" style="endArrow=none;html=1;rounded=0;exitX=0.25;exitY=1;exitDx=0;exitDy=0;entryX=0.25;entryY=0;entryDx=0;entryDy=0;" edge="1" parent="1" source="rh-3uXtS7XajqYFqgFPl-4" target="rh-3uXtS7XajqYFqgFPl-4">
          <mxGeometry width="50" height="50" relative="1" as="geometry">
            <mxPoint x="370" y="40" as="sourcePoint" />
            <mxPoint x="420" y="-10" as="targetPoint" />
          </mxGeometry>
        </mxCell>
        <mxCell id="rh-3uXtS7XajqYFqgFPl-6" value="Papel" style="text;html=1;align=center;verticalAlign=middle;whiteSpace=wrap;rounded=0;" vertex="1" parent="1">
          <mxGeometry x="156" y="121" width="46" height="30" as="geometry" />
        </mxCell>
        <mxCell id="rh-3uXtS7XajqYFqgFPl-7" value="Objetivo Final" style="text;html=1;align=center;verticalAlign=middle;whiteSpace=wrap;rounded=0;" vertex="1" parent="1">
          <mxGeometry x="200" y="121" width="90" height="30" as="geometry" />
        </mxCell>
        <mxCell id="rh-3uXtS7XajqYFqgFPl-11" value="" style="rounded=1;whiteSpace=wrap;html=1;dashed=1;" vertex="1" parent="1">
          <mxGeometry x="160" y="160" width="150" height="30" as="geometry" />
        </mxCell>
        <mxCell id="rh-3uXtS7XajqYFqgFPl-12" value="" style="endArrow=none;html=1;rounded=0;entryX=0.25;entryY=0;entryDx=0;entryDy=0;dashed=1;" edge="1" target="rh-3uXtS7XajqYFqgFPl-11" parent="1">
          <mxGeometry width="50" height="50" relative="1" as="geometry">
            <mxPoint x="198" y="190" as="sourcePoint" />
            <mxPoint x="420" y="30" as="targetPoint" />
          </mxGeometry>
        </mxCell>
        <mxCell id="rh-3uXtS7XajqYFqgFPl-13" value="Objetivo Instrumental" style="text;html=1;align=center;verticalAlign=middle;whiteSpace=wrap;rounded=0;" vertex="1" parent="1">
          <mxGeometry x="200" y="160" width="110" height="30" as="geometry" />
        </mxCell>
        <mxCell id="rh-3uXtS7XajqYFqgFPl-14" value="&lt;span style=&quot;color: rgb(0, 0, 0); font-family: Helvetica; font-size: 12px; font-style: normal; font-variant-ligatures: normal; font-variant-caps: normal; font-weight: 400; letter-spacing: normal; orphans: 2; text-align: center; text-indent: 0px; text-transform: none; widows: 2; word-spacing: 0px; -webkit-text-stroke-width: 0px; white-space: normal; background-color: rgb(251, 251, 251); text-decoration-thickness: initial; text-decoration-style: initial; text-decoration-color: initial; display: inline !important; float: none;&quot;&gt;Papel&lt;/span&gt;" style="text;whiteSpace=wrap;html=1;" vertex="1" parent="1">
          <mxGeometry x="162" y="162" width="40" height="20" as="geometry" />
        </mxCell>
        <mxCell id="rh-3uXtS7XajqYFqgFPl-15" value="" style="endArrow=classic;html=1;rounded=0;" edge="1" parent="1">
          <mxGeometry width="50" height="50" relative="1" as="geometry">
            <mxPoint x="160" y="220" as="sourcePoint" />
            <mxPoint x="220" y="220" as="targetPoint" />
          </mxGeometry>
        </mxCell>
        <mxCell id="rh-3uXtS7XajqYFqgFPl-16" value="Instrumenta diretamente" style="text;html=1;align=center;verticalAlign=middle;whiteSpace=wrap;rounded=0;" vertex="1" parent="1">
          <mxGeometry x="220" y="205" width="90" height="30" as="geometry" />
        </mxCell>
        <mxCell id="rh-3uXtS7XajqYFqgFPl-17" value="" style="endArrow=classic;html=1;rounded=0;dashed=1;" edge="1" parent="1">
          <mxGeometry width="50" height="50" relative="1" as="geometry">
            <mxPoint x="160" y="264.76" as="sourcePoint" />
            <mxPoint x="220" y="264.76" as="targetPoint" />
          </mxGeometry>
        </mxCell>
        <mxCell id="rh-3uXtS7XajqYFqgFPl-18" value="Instrumenta indiretamente" style="text;html=1;align=center;verticalAlign=middle;whiteSpace=wrap;rounded=0;" vertex="1" parent="1">
          <mxGeometry x="220" y="250" width="90" height="30" as="geometry" />
        </mxCell>
        <mxCell id="rh-3uXtS7XajqYFqgFPl-19" value="" style="endArrow=none;html=1;rounded=0;strokeColor=#4D4D4D;" edge="1" parent="1">
          <mxGeometry width="50" height="50" relative="1" as="geometry">
            <mxPoint x="163" y="300" as="sourcePoint" />
            <mxPoint x="303" y="300" as="targetPoint" />
          </mxGeometry>
        </mxCell>
        <mxCell id="rh-3uXtS7XajqYFqgFPl-20" value="&lt;i&gt;Papéis&lt;/i&gt;" style="text;html=1;align=center;verticalAlign=middle;whiteSpace=wrap;rounded=0;" vertex="1" parent="1">
          <mxGeometry x="156" y="300" width="50" height="30" as="geometry" />
        </mxCell>
        <mxCell id="rh-3uXtS7XajqYFqgFPl-21" value="P: Pesquisador&lt;div&gt;D: PcD&lt;/div&gt;" style="text;html=1;align=left;verticalAlign=middle;whiteSpace=wrap;rounded=0;spacingTop=3;spacing=1;spacingLeft=0;spacingBottom=5;spacingRight=4;" vertex="1" parent="1">
          <mxGeometry x="180" y="327" width="105" height="40" as="geometry" />
        </mxCell>
        <mxCell id="rh-3uXtS7XajqYFqgFPl-26" value="&lt;div style=&quot;text-align: start;&quot;&gt;&lt;font style=&quot;color: rgb(0, 0, 0); font-size: 16px;&quot; face=&quot;__DM_Sans_05e5f9, __DM_Sans_Fallback_05e5f9, ui-sans-serif, system-ui, sans-serif, Apple Color Emoji, Segoe UI Emoji, Segoe UI Symbol, Noto Color Emoji&quot;&gt;&lt;b&gt;Visualizar mapa por pesquisa&lt;/b&gt;&lt;/font&gt;&lt;/div&gt;" style="text;html=1;align=center;verticalAlign=middle;whiteSpace=wrap;rounded=0;" vertex="1" parent="1">
          <mxGeometry x="597" y="77" width="233" height="30" as="geometry" />
        </mxCell>
        <mxCell id="rh-3uXtS7XajqYFqgFPl-73" style="edgeStyle=orthogonalEdgeStyle;rounded=0;orthogonalLoop=1;jettySize=auto;html=1;exitX=1;exitY=0.5;exitDx=0;exitDy=0;entryX=0;entryY=0.5;entryDx=0;entryDy=0;" edge="1" parent="1" source="rh-3uXtS7XajqYFqgFPl-29" target="rh-3uXtS7XajqYFqgFPl-69">
          <mxGeometry relative="1" as="geometry" />
        </mxCell>
        <mxCell id="rh-3uXtS7XajqYFqgFPl-29" value="" style="rounded=1;whiteSpace=wrap;html=1;dashed=1;" vertex="1" parent="1">
          <mxGeometry x="464" y="247" width="196" height="30" as="geometry" />
        </mxCell>
        <mxCell id="rh-3uXtS7XajqYFqgFPl-30" value="" style="endArrow=none;html=1;rounded=0;exitX=0.25;exitY=1;exitDx=0;exitDy=0;entryX=0.25;entryY=0;entryDx=0;entryDy=0;dashed=1;" edge="1" parent="1">
          <mxGeometry width="50" height="50" relative="1" as="geometry">
            <mxPoint x="490" y="277" as="sourcePoint" />
            <mxPoint x="490" y="247" as="targetPoint" />
          </mxGeometry>
        </mxCell>
        <mxCell id="rh-3uXtS7XajqYFqgFPl-31" value="D" style="text;html=1;align=center;verticalAlign=middle;whiteSpace=wrap;rounded=0;" vertex="1" parent="1">
          <mxGeometry x="458" y="247" width="40" height="30" as="geometry" />
        </mxCell>
        <mxCell id="rh-3uXtS7XajqYFqgFPl-32" value="Digitar no campo de busca com maior acessibilidade" style="text;html=1;align=left;verticalAlign=middle;whiteSpace=wrap;rounded=0;" vertex="1" parent="1">
          <mxGeometry x="500" y="247" width="146" height="30" as="geometry" />
        </mxCell>
        <mxCell id="rh-3uXtS7XajqYFqgFPl-63" style="edgeStyle=orthogonalEdgeStyle;rounded=0;orthogonalLoop=1;jettySize=auto;html=1;entryX=0;entryY=0.5;entryDx=0;entryDy=0;" edge="1" parent="1" source="rh-3uXtS7XajqYFqgFPl-33" target="rh-3uXtS7XajqYFqgFPl-59">
          <mxGeometry relative="1" as="geometry" />
        </mxCell>
        <mxCell id="rh-3uXtS7XajqYFqgFPl-33" value="" style="rounded=1;whiteSpace=wrap;html=1;dashed=1;" vertex="1" parent="1">
          <mxGeometry x="464" y="167" width="196" height="30" as="geometry" />
        </mxCell>
        <mxCell id="rh-3uXtS7XajqYFqgFPl-34" value="" style="endArrow=none;html=1;rounded=0;exitX=0.25;exitY=1;exitDx=0;exitDy=0;entryX=0.25;entryY=0;entryDx=0;entryDy=0;dashed=1;" edge="1" parent="1">
          <mxGeometry width="50" height="50" relative="1" as="geometry">
            <mxPoint x="490" y="197" as="sourcePoint" />
            <mxPoint x="490" y="167" as="targetPoint" />
          </mxGeometry>
        </mxCell>
        <mxCell id="rh-3uXtS7XajqYFqgFPl-35" value="P" style="text;html=1;align=center;verticalAlign=middle;whiteSpace=wrap;rounded=0;" vertex="1" parent="1">
          <mxGeometry x="458" y="167" width="40" height="30" as="geometry" />
        </mxCell>
        <mxCell id="rh-3uXtS7XajqYFqgFPl-36" value="&lt;span style=&quot;font-family: __DM_Sans_05e5f9, __DM_Sans_Fallback_05e5f9, ui-sans-serif, system-ui, sans-serif, &amp;quot;Apple Color Emoji&amp;quot;, &amp;quot;Segoe UI Emoji&amp;quot;, &amp;quot;Segoe UI Symbol&amp;quot;, &amp;quot;Noto Color Emoji&amp;quot;;&quot;&gt;&lt;font&gt;Digitar o endereço no campo de busca&lt;/font&gt;&lt;/span&gt;" style="text;html=1;align=left;verticalAlign=middle;whiteSpace=wrap;rounded=0;" vertex="1" parent="1">
          <mxGeometry x="500" y="167" width="146" height="30" as="geometry" />
        </mxCell>
        <mxCell id="rh-3uXtS7XajqYFqgFPl-68" style="edgeStyle=orthogonalEdgeStyle;rounded=0;orthogonalLoop=1;jettySize=auto;html=1;entryX=0;entryY=0.5;entryDx=0;entryDy=0;" edge="1" parent="1" source="rh-3uXtS7XajqYFqgFPl-37" target="rh-3uXtS7XajqYFqgFPl-64">
          <mxGeometry relative="1" as="geometry" />
        </mxCell>
        <mxCell id="rh-3uXtS7XajqYFqgFPl-37" value="" style="rounded=1;whiteSpace=wrap;html=1;dashed=1;" vertex="1" parent="1">
          <mxGeometry x="464" y="288" width="196" height="30" as="geometry" />
        </mxCell>
        <mxCell id="rh-3uXtS7XajqYFqgFPl-38" value="" style="endArrow=none;html=1;rounded=0;exitX=0.25;exitY=1;exitDx=0;exitDy=0;entryX=0.25;entryY=0;entryDx=0;entryDy=0;dashed=1;" edge="1" parent="1">
          <mxGeometry width="50" height="50" relative="1" as="geometry">
            <mxPoint x="490" y="318" as="sourcePoint" />
            <mxPoint x="490" y="288" as="targetPoint" />
          </mxGeometry>
        </mxCell>
        <mxCell id="rh-3uXtS7XajqYFqgFPl-39" value="D" style="text;html=1;align=center;verticalAlign=middle;whiteSpace=wrap;rounded=0;" vertex="1" parent="1">
          <mxGeometry x="458" y="288" width="40" height="30" as="geometry" />
        </mxCell>
        <mxCell id="rh-3uXtS7XajqYFqgFPl-40" value="Escolhe categorias de interesses, maior contraste" style="text;html=1;align=left;verticalAlign=middle;whiteSpace=wrap;rounded=0;" vertex="1" parent="1">
          <mxGeometry x="500" y="288" width="150" height="30" as="geometry" />
        </mxCell>
        <mxCell id="rh-3uXtS7XajqYFqgFPl-58" style="edgeStyle=orthogonalEdgeStyle;rounded=0;orthogonalLoop=1;jettySize=auto;html=1;entryX=0;entryY=0.5;entryDx=0;entryDy=0;" edge="1" parent="1" source="rh-3uXtS7XajqYFqgFPl-41" target="rh-3uXtS7XajqYFqgFPl-50">
          <mxGeometry relative="1" as="geometry">
            <mxPoint x="690" y="222" as="targetPoint" />
          </mxGeometry>
        </mxCell>
        <mxCell id="rh-3uXtS7XajqYFqgFPl-41" value="" style="rounded=1;whiteSpace=wrap;html=1;dashed=1;" vertex="1" parent="1">
          <mxGeometry x="464" y="207" width="196" height="30" as="geometry" />
        </mxCell>
        <mxCell id="rh-3uXtS7XajqYFqgFPl-42" value="" style="endArrow=none;html=1;rounded=0;exitX=0.25;exitY=1;exitDx=0;exitDy=0;entryX=0.25;entryY=0;entryDx=0;entryDy=0;dashed=1;" edge="1" parent="1">
          <mxGeometry width="50" height="50" relative="1" as="geometry">
            <mxPoint x="490" y="237" as="sourcePoint" />
            <mxPoint x="490" y="207" as="targetPoint" />
          </mxGeometry>
        </mxCell>
        <mxCell id="rh-3uXtS7XajqYFqgFPl-43" value="P" style="text;html=1;align=center;verticalAlign=middle;whiteSpace=wrap;rounded=0;" vertex="1" parent="1">
          <mxGeometry x="458" y="207" width="40" height="30" as="geometry" />
        </mxCell>
        <mxCell id="rh-3uXtS7XajqYFqgFPl-44" value="Escolhe categorias de interesses" style="text;html=1;align=left;verticalAlign=middle;whiteSpace=wrap;rounded=0;" vertex="1" parent="1">
          <mxGeometry x="500" y="207" width="150" height="30" as="geometry" />
        </mxCell>
        <mxCell id="rh-3uXtS7XajqYFqgFPl-55" style="edgeStyle=orthogonalEdgeStyle;rounded=0;orthogonalLoop=1;jettySize=auto;html=1;exitX=0;exitY=0.5;exitDx=0;exitDy=0;entryX=0;entryY=0.5;entryDx=0;entryDy=0;" edge="1" parent="1" source="rh-3uXtS7XajqYFqgFPl-45" target="rh-3uXtS7XajqYFqgFPl-43">
          <mxGeometry relative="1" as="geometry" />
        </mxCell>
        <mxCell id="rh-3uXtS7XajqYFqgFPl-45" value="" style="rounded=1;whiteSpace=wrap;html=1;dashed=1;" vertex="1" parent="1">
          <mxGeometry x="464" y="127" width="196" height="30" as="geometry" />
        </mxCell>
        <mxCell id="rh-3uXtS7XajqYFqgFPl-46" value="" style="endArrow=none;html=1;rounded=0;exitX=0.25;exitY=1;exitDx=0;exitDy=0;entryX=0.25;entryY=0;entryDx=0;entryDy=0;dashed=1;" edge="1" parent="1">
          <mxGeometry width="50" height="50" relative="1" as="geometry">
            <mxPoint x="490" y="157" as="sourcePoint" />
            <mxPoint x="490" y="127" as="targetPoint" />
          </mxGeometry>
        </mxCell>
        <mxCell id="rh-3uXtS7XajqYFqgFPl-48" value="Informa o endereço por microfone" style="text;html=1;align=left;verticalAlign=middle;whiteSpace=wrap;rounded=0;" vertex="1" parent="1">
          <mxGeometry x="500" y="127" width="150" height="30" as="geometry" />
        </mxCell>
        <mxCell id="rh-3uXtS7XajqYFqgFPl-56" style="edgeStyle=orthogonalEdgeStyle;rounded=0;orthogonalLoop=1;jettySize=auto;html=1;entryX=0;entryY=0.5;entryDx=0;entryDy=0;" edge="1" parent="1" target="rh-3uXtS7XajqYFqgFPl-39">
          <mxGeometry relative="1" as="geometry">
            <mxPoint x="460" y="142" as="sourcePoint" />
            <Array as="points">
              <mxPoint x="438" y="142" />
              <mxPoint x="438" y="303" />
            </Array>
          </mxGeometry>
        </mxCell>
        <mxCell id="rh-3uXtS7XajqYFqgFPl-49" value="P D" style="text;html=1;align=center;verticalAlign=middle;whiteSpace=wrap;rounded=0;" vertex="1" parent="1">
          <mxGeometry x="469" y="127" width="20" height="30" as="geometry" />
        </mxCell>
        <mxCell id="rh-3uXtS7XajqYFqgFPl-50" value="" style="rounded=1;whiteSpace=wrap;html=1;" vertex="1" parent="1">
          <mxGeometry x="700" y="207" width="260" height="30" as="geometry" />
        </mxCell>
        <mxCell id="rh-3uXtS7XajqYFqgFPl-51" value="" style="endArrow=none;html=1;rounded=0;exitX=0.25;exitY=1;exitDx=0;exitDy=0;entryX=0.25;entryY=0;entryDx=0;entryDy=0;" edge="1" parent="1">
          <mxGeometry width="50" height="50" relative="1" as="geometry">
            <mxPoint x="726" y="237" as="sourcePoint" />
            <mxPoint x="726" y="207" as="targetPoint" />
          </mxGeometry>
        </mxCell>
        <mxCell id="rh-3uXtS7XajqYFqgFPl-52" value="&lt;span style=&quot;font-family: __DM_Sans_05e5f9, __DM_Sans_Fallback_05e5f9, ui-sans-serif, system-ui, sans-serif, &amp;quot;Apple Color Emoji&amp;quot;, &amp;quot;Segoe UI Emoji&amp;quot;, &amp;quot;Segoe UI Symbol&amp;quot;, &amp;quot;Noto Color Emoji&amp;quot;;&quot;&gt;&lt;font&gt;Visualizar mapa com pontos de interesse com zona de calor&lt;/font&gt;&lt;/span&gt;" style="text;html=1;align=left;verticalAlign=middle;whiteSpace=wrap;rounded=0;" vertex="1" parent="1">
          <mxGeometry x="736" y="207" width="184" height="30" as="geometry" />
        </mxCell>
        <mxCell id="rh-3uXtS7XajqYFqgFPl-53" value="P&amp;nbsp;" style="text;html=1;align=center;verticalAlign=middle;whiteSpace=wrap;rounded=0;" vertex="1" parent="1">
          <mxGeometry x="705" y="207" width="20" height="30" as="geometry" />
        </mxCell>
        <mxCell id="rh-3uXtS7XajqYFqgFPl-59" value="" style="rounded=1;whiteSpace=wrap;html=1;" vertex="1" parent="1">
          <mxGeometry x="700" y="167" width="260" height="30" as="geometry" />
        </mxCell>
        <mxCell id="rh-3uXtS7XajqYFqgFPl-60" value="" style="endArrow=none;html=1;rounded=0;exitX=0.25;exitY=1;exitDx=0;exitDy=0;entryX=0.25;entryY=0;entryDx=0;entryDy=0;" edge="1" parent="1">
          <mxGeometry width="50" height="50" relative="1" as="geometry">
            <mxPoint x="726" y="197" as="sourcePoint" />
            <mxPoint x="726" y="167" as="targetPoint" />
          </mxGeometry>
        </mxCell>
        <mxCell id="rh-3uXtS7XajqYFqgFPl-61" value="&lt;span style=&quot;font-family: __DM_Sans_05e5f9, __DM_Sans_Fallback_05e5f9, ui-sans-serif, system-ui, sans-serif, &amp;quot;Apple Color Emoji&amp;quot;, &amp;quot;Segoe UI Emoji&amp;quot;, &amp;quot;Segoe UI Symbol&amp;quot;, &amp;quot;Noto Color Emoji&amp;quot;;&quot;&gt;&lt;font&gt;Visualizar painel resumido&lt;/font&gt;&lt;/span&gt;" style="text;html=1;align=left;verticalAlign=middle;whiteSpace=wrap;rounded=0;" vertex="1" parent="1">
          <mxGeometry x="734.5" y="167" width="184" height="30" as="geometry" />
        </mxCell>
        <mxCell id="rh-3uXtS7XajqYFqgFPl-62" value="P&amp;nbsp;" style="text;html=1;align=center;verticalAlign=middle;whiteSpace=wrap;rounded=0;" vertex="1" parent="1">
          <mxGeometry x="705" y="167" width="20" height="30" as="geometry" />
        </mxCell>
        <mxCell id="rh-3uXtS7XajqYFqgFPl-64" value="" style="rounded=1;whiteSpace=wrap;html=1;" vertex="1" parent="1">
          <mxGeometry x="698" y="288" width="260" height="30" as="geometry" />
        </mxCell>
        <mxCell id="rh-3uXtS7XajqYFqgFPl-65" value="" style="endArrow=none;html=1;rounded=0;exitX=0.25;exitY=1;exitDx=0;exitDy=0;entryX=0.25;entryY=0;entryDx=0;entryDy=0;" edge="1" parent="1">
          <mxGeometry width="50" height="50" relative="1" as="geometry">
            <mxPoint x="724" y="318" as="sourcePoint" />
            <mxPoint x="724" y="288" as="targetPoint" />
          </mxGeometry>
        </mxCell>
        <mxCell id="rh-3uXtS7XajqYFqgFPl-66" value="&lt;font style=&quot;font-size: 11px;&quot;&gt;&lt;span style=&quot;font-family: __DM_Sans_05e5f9, __DM_Sans_Fallback_05e5f9, ui-sans-serif, system-ui, sans-serif, &amp;quot;Apple Color Emoji&amp;quot;, &amp;quot;Segoe UI Emoji&amp;quot;, &amp;quot;Segoe UI Symbol&amp;quot;, &amp;quot;Noto Color Emoji&amp;quot;;&quot;&gt;Visualizar mapa com cores adaptativas,&amp;nbsp;&lt;/span&gt;&lt;span style=&quot;font-family: __DM_Sans_05e5f9, __DM_Sans_Fallback_05e5f9, ui-sans-serif, system-ui, sans-serif, &amp;quot;Apple Color Emoji&amp;quot;, &amp;quot;Segoe UI Emoji&amp;quot;, &amp;quot;Segoe UI Symbol&amp;quot;, &amp;quot;Noto Color Emoji&amp;quot;;&quot;&gt;&lt;font style=&quot;&quot;&gt;pontos de interesse por zona de calor&lt;/font&gt;&lt;/span&gt;&lt;/font&gt;" style="text;html=1;align=left;verticalAlign=middle;whiteSpace=wrap;rounded=0;" vertex="1" parent="1">
          <mxGeometry x="726" y="288" width="236" height="30" as="geometry" />
        </mxCell>
        <mxCell id="rh-3uXtS7XajqYFqgFPl-67" value="D" style="text;html=1;align=center;verticalAlign=middle;whiteSpace=wrap;rounded=0;" vertex="1" parent="1">
          <mxGeometry x="703" y="288" width="20" height="30" as="geometry" />
        </mxCell>
        <mxCell id="rh-3uXtS7XajqYFqgFPl-69" value="" style="rounded=1;whiteSpace=wrap;html=1;" vertex="1" parent="1">
          <mxGeometry x="700" y="247" width="260" height="30" as="geometry" />
        </mxCell>
        <mxCell id="rh-3uXtS7XajqYFqgFPl-70" value="" style="endArrow=none;html=1;rounded=0;exitX=0.25;exitY=1;exitDx=0;exitDy=0;entryX=0.25;entryY=0;entryDx=0;entryDy=0;" edge="1" parent="1">
          <mxGeometry width="50" height="50" relative="1" as="geometry">
            <mxPoint x="726" y="277" as="sourcePoint" />
            <mxPoint x="726" y="247" as="targetPoint" />
          </mxGeometry>
        </mxCell>
        <mxCell id="rh-3uXtS7XajqYFqgFPl-71" value="&lt;span style=&quot;font-family: __DM_Sans_05e5f9, __DM_Sans_Fallback_05e5f9, ui-sans-serif, system-ui, sans-serif, &amp;quot;Apple Color Emoji&amp;quot;, &amp;quot;Segoe UI Emoji&amp;quot;, &amp;quot;Segoe UI Symbol&amp;quot;, &amp;quot;Noto Color Emoji&amp;quot;;&quot;&gt;&lt;font&gt;Visualizar painel resumido com alto contraste&lt;/font&gt;&lt;/span&gt;" style="text;html=1;align=left;verticalAlign=middle;whiteSpace=wrap;rounded=0;" vertex="1" parent="1">
          <mxGeometry x="736" y="247" width="214" height="30" as="geometry" />
        </mxCell>
        <mxCell id="rh-3uXtS7XajqYFqgFPl-72" value="D" style="text;html=1;align=center;verticalAlign=middle;whiteSpace=wrap;rounded=0;" vertex="1" parent="1">
          <mxGeometry x="705" y="247" width="20" height="30" as="geometry" />
        </mxCell>
        <mxCell id="rh-3uXtS7XajqYFqgFPl-78" value="&lt;div style=&quot;text-align: start;&quot;&gt;&lt;font style=&quot;color: rgb(0, 0, 0); font-size: 16px;&quot; face=&quot;__DM_Sans_05e5f9, __DM_Sans_Fallback_05e5f9, ui-sans-serif, system-ui, sans-serif, Apple Color Emoji, Segoe UI Emoji, Segoe UI Symbol, Noto Color Emoji&quot;&gt;&lt;b&gt;Painel resumido&lt;/b&gt;&lt;/font&gt;&lt;/div&gt;" style="text;html=1;align=center;verticalAlign=middle;whiteSpace=wrap;rounded=0;" vertex="1" parent="1">
          <mxGeometry x="594" y="360" width="233" height="30" as="geometry" />
        </mxCell>
        <mxCell id="rh-3uXtS7XajqYFqgFPl-111" style="edgeStyle=orthogonalEdgeStyle;rounded=0;orthogonalLoop=1;jettySize=auto;html=1;entryX=0;entryY=0.5;entryDx=0;entryDy=0;" edge="1" parent="1" source="rh-3uXtS7XajqYFqgFPl-80" target="rh-3uXtS7XajqYFqgFPl-92">
          <mxGeometry relative="1" as="geometry" />
        </mxCell>
        <mxCell id="rh-3uXtS7XajqYFqgFPl-80" value="" style="rounded=1;whiteSpace=wrap;html=1;dashed=1;" vertex="1" parent="1">
          <mxGeometry x="464" y="410" width="206" height="50" as="geometry" />
        </mxCell>
        <mxCell id="rh-3uXtS7XajqYFqgFPl-81" value="" style="endArrow=none;html=1;rounded=0;entryX=0.25;entryY=0;entryDx=0;entryDy=0;dashed=1;" edge="1" parent="1">
          <mxGeometry width="50" height="50" relative="1" as="geometry">
            <mxPoint x="490" y="460" as="sourcePoint" />
            <mxPoint x="490" y="410" as="targetPoint" />
          </mxGeometry>
        </mxCell>
        <mxCell id="rh-3uXtS7XajqYFqgFPl-82" value="&lt;span style=&quot;font-family: __DM_Sans_05e5f9, __DM_Sans_Fallback_05e5f9, ui-sans-serif, system-ui, sans-serif, &amp;quot;Apple Color Emoji&amp;quot;, &amp;quot;Segoe UI Emoji&amp;quot;, &amp;quot;Segoe UI Symbol&amp;quot;, &amp;quot;Noto Color Emoji&amp;quot;;&quot;&gt;Receber score de localização, t&lt;/span&gt;empo e distâncias do terreno entre pontos de interesses&amp;nbsp;" style="text;html=1;align=left;verticalAlign=middle;whiteSpace=wrap;rounded=0;" vertex="1" parent="1">
          <mxGeometry x="491" y="420" width="169" height="30" as="geometry" />
        </mxCell>
        <mxCell id="rh-3uXtS7XajqYFqgFPl-83" value="P&amp;nbsp;" style="text;html=1;align=center;verticalAlign=middle;whiteSpace=wrap;rounded=0;" vertex="1" parent="1">
          <mxGeometry x="469" y="420" width="20" height="30" as="geometry" />
        </mxCell>
        <mxCell id="rh-3uXtS7XajqYFqgFPl-92" value="" style="rounded=1;whiteSpace=wrap;html=1;" vertex="1" parent="1">
          <mxGeometry x="705.5" y="420" width="206" height="30" as="geometry" />
        </mxCell>
        <mxCell id="rh-3uXtS7XajqYFqgFPl-93" value="" style="endArrow=none;html=1;rounded=0;exitX=0.25;exitY=1;exitDx=0;exitDy=0;entryX=0.25;entryY=0;entryDx=0;entryDy=0;" edge="1" parent="1">
          <mxGeometry width="50" height="50" relative="1" as="geometry">
            <mxPoint x="731.5" y="450" as="sourcePoint" />
            <mxPoint x="731.5" y="420" as="targetPoint" />
          </mxGeometry>
        </mxCell>
        <mxCell id="rh-3uXtS7XajqYFqgFPl-94" value="&lt;span style=&quot;font-family: __DM_Sans_05e5f9, __DM_Sans_Fallback_05e5f9, ui-sans-serif, system-ui, sans-serif, &amp;quot;Apple Color Emoji&amp;quot;, &amp;quot;Segoe UI Emoji&amp;quot;, &amp;quot;Segoe UI Symbol&amp;quot;, &amp;quot;Noto Color Emoji&amp;quot;;&quot;&gt;&lt;font style=&quot;&quot;&gt;Analisar dados fornecidos&lt;/font&gt;&lt;/span&gt;" style="text;html=1;align=left;verticalAlign=middle;whiteSpace=wrap;rounded=0;" vertex="1" parent="1">
          <mxGeometry x="736.5" y="420" width="180" height="30" as="geometry" />
        </mxCell>
        <mxCell id="rh-3uXtS7XajqYFqgFPl-95" value="P" style="text;html=1;align=center;verticalAlign=middle;whiteSpace=wrap;rounded=0;" vertex="1" parent="1">
          <mxGeometry x="710.5" y="420" width="20" height="30" as="geometry" />
        </mxCell>
        <mxCell id="rh-3uXtS7XajqYFqgFPl-100" value="" style="rounded=1;whiteSpace=wrap;html=1;" vertex="1" parent="1">
          <mxGeometry x="708" y="490" width="206" height="30" as="geometry" />
        </mxCell>
        <mxCell id="rh-3uXtS7XajqYFqgFPl-101" value="" style="endArrow=none;html=1;rounded=0;exitX=0.25;exitY=1;exitDx=0;exitDy=0;entryX=0.25;entryY=0;entryDx=0;entryDy=0;" edge="1" parent="1">
          <mxGeometry width="50" height="50" relative="1" as="geometry">
            <mxPoint x="734" y="520" as="sourcePoint" />
            <mxPoint x="734" y="490" as="targetPoint" />
          </mxGeometry>
        </mxCell>
        <mxCell id="rh-3uXtS7XajqYFqgFPl-102" value="&lt;span style=&quot;font-family: __DM_Sans_05e5f9, __DM_Sans_Fallback_05e5f9, ui-sans-serif, system-ui, sans-serif, &amp;quot;Apple Color Emoji&amp;quot;, &amp;quot;Segoe UI Emoji&amp;quot;, &amp;quot;Segoe UI Symbol&amp;quot;, &amp;quot;Noto Color Emoji&amp;quot;;&quot;&gt;&lt;font style=&quot;&quot;&gt;Analisar dados fornecidos, com alto constraste&lt;/font&gt;&lt;/span&gt;" style="text;html=1;align=left;verticalAlign=middle;whiteSpace=wrap;rounded=0;" vertex="1" parent="1">
          <mxGeometry x="739" y="490" width="166" height="30" as="geometry" />
        </mxCell>
        <mxCell id="rh-3uXtS7XajqYFqgFPl-103" value="D" style="text;html=1;align=center;verticalAlign=middle;whiteSpace=wrap;rounded=0;" vertex="1" parent="1">
          <mxGeometry x="713" y="490" width="20" height="30" as="geometry" />
        </mxCell>
        <mxCell id="rh-3uXtS7XajqYFqgFPl-110" style="edgeStyle=orthogonalEdgeStyle;rounded=0;orthogonalLoop=1;jettySize=auto;html=1;entryX=0;entryY=0.5;entryDx=0;entryDy=0;" edge="1" parent="1" source="rh-3uXtS7XajqYFqgFPl-104" target="rh-3uXtS7XajqYFqgFPl-100">
          <mxGeometry relative="1" as="geometry" />
        </mxCell>
        <mxCell id="rh-3uXtS7XajqYFqgFPl-104" value="" style="rounded=1;whiteSpace=wrap;html=1;dashed=1;" vertex="1" parent="1">
          <mxGeometry x="464" y="480" width="206" height="50" as="geometry" />
        </mxCell>
        <mxCell id="rh-3uXtS7XajqYFqgFPl-105" value="" style="endArrow=none;html=1;rounded=0;entryX=0.25;entryY=0;entryDx=0;entryDy=0;dashed=1;" edge="1" parent="1">
          <mxGeometry width="50" height="50" relative="1" as="geometry">
            <mxPoint x="490" y="530" as="sourcePoint" />
            <mxPoint x="490" y="480" as="targetPoint" />
          </mxGeometry>
        </mxCell>
        <mxCell id="rh-3uXtS7XajqYFqgFPl-106" value="&lt;span style=&quot;font-family: __DM_Sans_05e5f9, __DM_Sans_Fallback_05e5f9, ui-sans-serif, system-ui, sans-serif, &amp;quot;Apple Color Emoji&amp;quot;, &amp;quot;Segoe UI Emoji&amp;quot;, &amp;quot;Segoe UI Symbol&amp;quot;, &amp;quot;Noto Color Emoji&amp;quot;;&quot;&gt;Receber score de localização, t&lt;/span&gt;empo e distâncias do terreno entre pontos de interesses&amp;nbsp;" style="text;html=1;align=left;verticalAlign=middle;whiteSpace=wrap;rounded=0;" vertex="1" parent="1">
          <mxGeometry x="491" y="490" width="169" height="30" as="geometry" />
        </mxCell>
        <mxCell id="rh-3uXtS7XajqYFqgFPl-107" value="D" style="text;html=1;align=center;verticalAlign=middle;whiteSpace=wrap;rounded=0;" vertex="1" parent="1">
          <mxGeometry x="469" y="490" width="20" height="30" as="geometry" />
        </mxCell>
        <mxCell id="rh-3uXtS7XajqYFqgFPl-117" value="" style="rounded=1;whiteSpace=wrap;html=1;dashed=1;" vertex="1" parent="1">
          <mxGeometry x="464" y="550" width="206" height="30" as="geometry" />
        </mxCell>
        <mxCell id="rh-3uXtS7XajqYFqgFPl-118" value="" style="endArrow=none;html=1;rounded=0;exitX=0.25;exitY=1;exitDx=0;exitDy=0;entryX=0.25;entryY=0;entryDx=0;entryDy=0;dashed=1;" edge="1" parent="1">
          <mxGeometry width="50" height="50" relative="1" as="geometry">
            <mxPoint x="490" y="580" as="sourcePoint" />
            <mxPoint x="490" y="550" as="targetPoint" />
          </mxGeometry>
        </mxCell>
        <mxCell id="rh-3uXtS7XajqYFqgFPl-119" value="&lt;span style=&quot;font-family: __DM_Sans_05e5f9, __DM_Sans_Fallback_05e5f9, ui-sans-serif, system-ui, sans-serif, &amp;quot;Apple Color Emoji&amp;quot;, &amp;quot;Segoe UI Emoji&amp;quot;, &amp;quot;Segoe UI Symbol&amp;quot;, &amp;quot;Noto Color Emoji&amp;quot;;&quot;&gt;&lt;font style=&quot;&quot;&gt;Permitir salvar em lista de terreno favoritos&lt;/font&gt;&lt;/span&gt;" style="text;html=1;align=left;verticalAlign=middle;whiteSpace=wrap;rounded=0;dashed=1;" vertex="1" parent="1">
          <mxGeometry x="494" y="550" width="166" height="30" as="geometry" />
        </mxCell>
        <mxCell id="rh-3uXtS7XajqYFqgFPl-120" value="P&lt;div&gt;D&lt;/div&gt;" style="text;html=1;align=center;verticalAlign=middle;whiteSpace=wrap;rounded=0;dashed=1;" vertex="1" parent="1">
          <mxGeometry x="469" y="551" width="20" height="30" as="geometry" />
        </mxCell>
        <mxCell id="rh-3uXtS7XajqYFqgFPl-121" value="" style="rounded=1;whiteSpace=wrap;html=1;dashed=1;" vertex="1" parent="1">
          <mxGeometry x="464" y="590" width="206" height="30" as="geometry" />
        </mxCell>
        <mxCell id="rh-3uXtS7XajqYFqgFPl-122" value="" style="endArrow=none;html=1;rounded=0;exitX=0.25;exitY=1;exitDx=0;exitDy=0;entryX=0.25;entryY=0;entryDx=0;entryDy=0;dashed=1;" edge="1" parent="1">
          <mxGeometry width="50" height="50" relative="1" as="geometry">
            <mxPoint x="490" y="620" as="sourcePoint" />
            <mxPoint x="490" y="590" as="targetPoint" />
          </mxGeometry>
        </mxCell>
        <mxCell id="rh-3uXtS7XajqYFqgFPl-123" value="&lt;span style=&quot;font-family: __DM_Sans_05e5f9, __DM_Sans_Fallback_05e5f9, ui-sans-serif, system-ui, sans-serif, &amp;quot;Apple Color Emoji&amp;quot;, &amp;quot;Segoe UI Emoji&amp;quot;, &amp;quot;Segoe UI Symbol&amp;quot;, &amp;quot;Noto Color Emoji&amp;quot;;&quot;&gt;&lt;font style=&quot;&quot;&gt;Permitir o compartilhamento de terrenos&lt;/font&gt;&lt;/span&gt;" style="text;html=1;align=left;verticalAlign=middle;whiteSpace=wrap;rounded=0;dashed=1;" vertex="1" parent="1">
          <mxGeometry x="494" y="590" width="166" height="30" as="geometry" />
        </mxCell>
        <mxCell id="rh-3uXtS7XajqYFqgFPl-124" value="P&lt;div&gt;D&lt;/div&gt;" style="text;html=1;align=center;verticalAlign=middle;whiteSpace=wrap;rounded=0;dashed=1;" vertex="1" parent="1">
          <mxGeometry x="469" y="591" width="20" height="30" as="geometry" />
        </mxCell>
      </root>
    </mxGraphModel>
  </diagram>
</mxfile>
